<?xml version="1.0" standalone="no"?>
<!DOCTYPE svg PUBLIC "-//W3C//DTD SVG 20010904//EN"
 "http://www.w3.org/TR/2001/REC-SVG-20010904/DTD/svg10.dtd">
<svg version="1.0" xmlns="http://www.w3.org/2000/svg"
 width="512.000000pt" height="512.000000pt" viewBox="0 0 512.000000 512.000000"
 preserveAspectRatio="xMidYMid meet">

<g transform="translate(0.000000,512.000000) scale(0.100000,-0.100000)"
fill="#000000" stroke="none">
<path d="M2315 5109 c-1080 -111 -1977 -887 -2238 -1934 -58 -232 -71 -349
-71 -615 0 -177 4 -265 18 -355 145 -950 773 -1720 1681 -2057 119 -44 363
-104 510 -125 180 -25 511 -25 690 1 1036 147 1885 910 2138 1921 55 219 72
366 72 615 0 249 -17 396 -72 615 -229 917 -957 1643 -1873 1869 -80 19 -192
43 -250 51 -126 19 -479 27 -605 14z m395 -899 l0 -300 -150 0 -150 0 0 300 0
300 150 0 150 0 0 -300z m-846 -144 c80 -139 146 -256 146 -259 0 -6 -213
-131 -241 -142 -13 -5 -47 46 -159 240 -78 136 -143 253 -144 261 -1 11 223
151 245 153 4 1 72 -113 153 -253z m-647 -558 c193 -111 243 -144 238 -157
-10 -27 -136 -241 -142 -241 -6 0 -494 280 -507 291 -4 4 25 64 65 134 54 93
76 124 88 120 8 -3 124 -69 258 -147z m1579 73 c45 -11 112 -32 148 -47 l67
-27 82 32 c145 55 206 65 377 65 169 -1 229 -13 385 -73 243 -94 482 -333 576
-576 62 -160 72 -215 72 -395 0 -180 -10 -235 -72 -395 -94 -243 -333 -482
-576 -576 -157 -61 -216 -72 -385 -72 -171 -1 -234 10 -377 64 l-81 31 -79
-30 c-138 -53 -221 -67 -388 -66 -118 1 -166 6 -228 22 -397 108 -670 381
-779 782 -32 115 -31 362 1 484 109 420 448 731 866 796 93 14 297 4 391 -19z
m-1586 -1021 l0 -150 -300 0 -300 0 0 150 0 150 300 0 300 0 0 -150z m174
-662 c36 -62 68 -120 71 -129 5 -13 -45 -46 -238 -157 -134 -78 -250 -144
-258 -147 -12 -4 -34 27 -88 120 -40 70 -71 129 -68 131 8 9 502 293 509 294
3 0 36 -51 72 -112z m514 -514 c61 -36 112 -68 112 -71 0 -7 -279 -494 -290
-506 -4 -5 -65 24 -134 64 -95 54 -126 76 -121 87 3 9 69 125 147 259 111 193
144 243 157 238 9 -3 67 -35 129 -71z m812 -474 l0 -300 -150 0 -150 0 0 300
0 300 150 0 150 0 0 -300z"/>
<path d="M2405 3294 c-90 -20 -189 -63 -262 -112 -70 -48 -177 -158 -221 -228
-124 -196 -145 -464 -55 -678 121 -288 422 -482 719 -463 121 7 123 10 59 90
-312 389 -312 925 0 1314 47 58 52 69 38 77 -30 17 -203 17 -278 0z"/>
<path d="M3310 3294 c-243 -52 -448 -220 -541 -444 -182 -435 80 -929 543
-1024 521 -107 989 361 882 882 -83 405 -486 672 -884 586z"/>
</g>
</svg>
