<?xml version="1.0" standalone="no"?>
<!DOCTYPE svg PUBLIC "-//W3C//DTD SVG 20010904//EN"
 "http://www.w3.org/TR/2001/REC-SVG-20010904/DTD/svg10.dtd">
<svg version="1.0" xmlns="http://www.w3.org/2000/svg"
 width="512.000000pt" height="512.000000pt" viewBox="0 0 512.000000 512.000000"
 preserveAspectRatio="xMidYMid meet">

<g transform="translate(0.000000,512.000000) scale(0.100000,-0.100000)"
fill="#000000" stroke="none">
<path d="M2315 5109 c-485 -50 -943 -235 -1334 -537 -111 -85 -348 -322 -433
-433 -158 -203 -309 -474 -394 -704 -47 -128 -107 -367 -130 -520 -26 -168
-26 -541 0 -710 23 -151 83 -391 131 -521 85 -231 235 -500 393 -703 81 -105
310 -336 412 -417 207 -163 488 -322 724 -409 130 -48 370 -108 521 -131 148
-22 532 -26 670 -6 482 69 888 240 1265 530 103 80 334 309 416 412 161 204
323 491 409 724 48 130 108 370 131 521 14 90 18 179 18 355 0 271 -13 386
-74 626 -48 190 -93 310 -185 499 -196 403 -500 749 -880 1004 -319 214 -661
345 -1055 406 -126 19 -477 28 -605 14z m450 -299 c785 -72 1480 -553 1825
-1264 106 -217 166 -409 206 -661 25 -154 25 -496 0 -650 -40 -252 -100 -444
-206 -661 -223 -458 -585 -820 -1045 -1045 -216 -105 -408 -165 -660 -205
-154 -25 -496 -25 -650 0 -433 70 -808 240 -1135 514 -498 417 -800 1067 -800
1722 0 655 301 1302 800 1723 464 390 1069 582 1665 527z"/>
<path d="M2410 4210 l0 -300 150 0 150 0 0 300 0 300 -150 0 -150 0 0 -300z"/>
<path d="M1585 4249 c-67 -39 -119 -75 -119 -83 2 -17 283 -506 292 -506 7 0
211 115 236 133 18 13 12 26 -129 271 -81 141 -151 256 -154 255 -3 0 -60 -31
-126 -70z"/>
<path d="M871 3535 c-40 -70 -69 -130 -65 -134 34 -30 507 -292 514 -285 26
29 142 246 134 253 -11 11 -473 278 -495 286 -12 4 -33 -24 -88 -120z"/>
<path d="M2405 3599 c-209 -30 -429 -142 -586 -298 -135 -136 -230 -303 -280
-497 -32 -122 -33 -369 -1 -484 127 -467 500 -780 962 -807 139 -8 259 9 398
56 l112 38 113 -38 c138 -47 258 -64 397 -56 530 31 956 457 987 987 26 455
-256 888 -675 1040 -152 55 -203 64 -372 64 -166 0 -257 -16 -388 -69 l-58
-23 -114 38 c-168 57 -329 73 -495 49z m292 -302 c3 -4 -12 -29 -34 -55 -331
-393 -335 -951 -9 -1353 27 -33 46 -62 43 -65 -3 -3 -47 -8 -99 -11 -364 -22
-697 236 -772 599 -82 399 176 792 579 882 70 15 277 17 292 3z m910 -3 c151
-31 275 -99 385 -211 149 -153 213 -310 213 -523 0 -64 -6 -139 -14 -170 -71
-284 -299 -505 -583 -564 -519 -107 -989 362 -882 882 83 404 480 669 881 586z"/>
<path d="M610 2560 l0 -150 300 0 300 0 0 150 0 150 -300 0 -300 0 0 -150z"/>
<path d="M1057 1866 c-137 -80 -251 -147 -254 -149 -5 -6 137 -257 146 -257 3
0 119 65 256 144 164 95 250 150 249 160 -2 19 -133 246 -142 246 -4 0 -119
-65 -255 -144z"/>
<path d="M1611 1217 c-77 -134 -143 -250 -146 -259 -5 -11 26 -33 121 -87 69
-40 130 -69 134 -64 4 4 71 120 150 257 137 237 143 249 124 263 -25 18 -229
133 -236 133 -4 0 -69 -109 -147 -243z"/>
<path d="M2410 910 l0 -300 150 0 150 0 0 300 0 300 -150 0 -150 0 0 -300z"/>
</g>
</svg>
